<?xml version="1.0" encoding="UTF-8"?> <svg xmlns="http://www.w3.org/2000/svg" viewBox="0 0 1080 120" fill="none"><g clip-path="url(#clip0_1151_2733)"><path d="M181.002 84.5092L170.639 68.4367L166.701 72.542V84.4887H155.446V30.9547H166.701V59.5486L179.883 45.1797H193.375L178.266 60.657L193.893 84.5092H181.002Z" fill="#21446D"></path><path d="M199.843 84.5089V30.9543H211.18V84.5089H199.843Z" fill="#21446D"></path><path d="M244.963 84.509V80.2599C243.459 81.9175 241.602 83.2246 239.527 84.087C237.452 84.9495 235.21 85.3459 232.962 85.2479C225.48 85.2479 219.324 80.9989 219.324 73.2192V73.0755C219.324 64.4748 225.915 60.5131 235.325 60.5131C238.636 60.4814 241.927 61.0304 245.046 62.1347V61.4779C245.046 56.8593 242.144 54.2729 236.506 54.2729C232.753 54.259 229.032 54.9557 225.542 56.3256L222.724 47.807C227.557 45.6176 232.83 44.5437 238.144 44.6664C250.455 44.6664 255.865 50.9681 255.865 61.6216V84.4269L244.963 84.509ZM245.191 68.6623C242.925 67.6775 240.473 67.1808 237.999 67.2049C233.19 67.2049 230.226 69.1138 230.226 72.6239V72.7676C230.226 75.7851 232.734 77.5504 236.444 77.5504C241.709 77.5504 245.274 74.6766 245.274 70.6534L245.191 68.6623Z" fill="#21446D"></path><path d="M284.322 85.3917C281.601 85.4525 278.895 84.9701 276.366 83.973C273.838 82.9758 271.537 81.4846 269.603 79.5881C267.669 77.6916 266.14 75.4287 265.108 72.9344C264.076 70.4402 263.562 67.7655 263.596 65.0701V64.9264C263.553 62.2105 264.064 59.514 265.097 56.9979C266.13 54.4817 267.665 52.1976 269.609 50.2817C271.553 48.3659 273.867 46.8576 276.413 45.847C278.958 44.8364 281.683 44.3441 284.425 44.3996C287.402 44.2305 290.379 44.7382 293.127 45.8838C295.875 47.0295 298.322 48.7827 300.281 51.0092L293.379 58.3579C292.298 57.0098 290.925 55.9204 289.36 55.1705C287.796 54.4207 286.081 54.0297 284.343 54.0267C278.726 54.0267 274.726 58.9326 274.726 64.7417V64.8854C274.726 70.8998 278.643 75.7441 284.798 75.7441C286.518 75.7132 288.213 75.3329 289.778 74.6267C291.343 73.9206 292.745 72.9036 293.897 71.6387L300.509 78.2483C298.546 80.5907 296.065 82.4536 293.258 83.6924C290.451 84.9313 287.393 85.5128 284.322 85.3917Z" fill="#21446D"></path><path d="M333.008 84.5092V62.566C333.008 57.2906 330.479 54.581 326.189 54.581C321.898 54.581 319.142 57.2906 319.142 62.566V84.5092H307.888V30.9547H319.142V50.7631C320.406 48.8397 322.132 47.2559 324.164 46.1528C326.196 45.0498 328.473 44.4617 330.79 44.4408C339.308 44.4408 344.262 50.0241 344.262 59.0559V84.5092H333.008Z" fill="#21446D"></path><path d="M367.475 85.1661C360.573 85.1661 355.91 82.4566 355.91 73.3632V54.7248H351.164V45.1798H355.91V35.1216H367.164V45.1798H376.512V54.7248H367.164V71.5363C367.164 74.1021 368.283 75.3337 370.812 75.3337C372.753 75.3427 374.665 74.8624 376.367 73.9379V82.9082C373.676 84.4745 370.595 85.2572 367.475 85.1661Z" fill="#21446D"></path><path d="M420.514 68.7447H392.948C393.309 70.996 394.506 73.0327 396.304 74.4563C398.102 75.88 400.371 76.5881 402.668 76.4422C404.472 76.4586 406.258 76.1018 407.914 75.3949C409.57 74.688 411.059 73.6464 412.285 72.3369L418.731 78.0022C415.973 81.2099 412.297 83.5122 408.188 84.6044C404.08 85.6965 399.734 85.527 395.725 84.1183C391.716 82.7095 388.233 80.1279 385.739 76.7154C383.244 73.3029 381.855 69.2205 381.756 65.0088V64.8651C381.756 53.6369 389.839 44.3382 401.404 44.3382C414.669 44.3382 420.742 54.6016 420.742 65.7067V65.8504C420.742 67.0409 420.659 67.7594 420.514 68.7447ZM401.404 53.3905C396.741 53.3905 393.694 56.6953 392.803 61.7655H409.777C409.114 56.7775 406.15 53.3905 401.404 53.3905Z" fill="#21446D"></path><path d="M454.235 84.5088V62.5656C454.235 57.2902 451.727 54.5806 447.416 54.5806C443.105 54.5806 440.39 57.2902 440.39 62.5656V84.5088H429.115V45.1794H440.39V50.7627C441.653 48.8422 443.375 47.2602 445.403 46.1573C447.431 45.0544 449.704 44.4647 452.017 44.4404C460.536 44.4404 465.51 50.0237 465.51 59.0555V84.5088H454.235Z" fill="#21446D"></path><path d="M498.921 85.2482C496.528 85.3043 494.156 84.8022 491.996 83.7824C489.835 82.7625 487.948 81.2536 486.485 79.3775V96.2506H475.231V45.1798H486.485V50.8247C487.855 48.817 489.711 47.181 491.883 46.0659C494.055 44.9508 496.475 44.3921 498.921 44.4409C508.185 44.4409 517.015 51.6457 517.015 64.7829V64.9266C517.015 78.0228 508.33 85.2482 498.921 85.2482ZM505.74 64.7213C505.74 58.1733 501.304 53.8627 496.04 53.8627C490.775 53.8627 486.402 58.1733 486.402 64.7213V64.865C486.402 71.3926 490.775 75.7238 496.04 75.7238C501.304 75.7238 505.74 71.4747 505.74 64.865V64.7213Z" fill="#21446D"></path><path d="M544.872 85.3916C542.111 85.482 539.359 85.0247 536.778 84.0466C534.198 83.0684 531.841 81.5891 529.846 79.6958C527.851 77.8024 526.259 75.5332 525.163 73.0215C524.066 70.5097 523.488 67.8063 523.462 65.07V64.9263C523.615 59.3967 525.936 54.1434 529.933 50.2794C533.93 46.4153 539.289 44.2439 544.874 44.2252C550.46 44.2065 555.833 46.342 559.856 50.1792C563.879 54.0165 566.236 59.2541 566.427 64.7826V64.9263C566.407 67.6831 565.829 70.4078 564.727 72.9396C563.625 75.4713 562.022 77.7587 560.013 79.6665C558.003 81.5743 555.628 83.0639 553.028 84.0472C550.427 85.0305 547.654 85.4877 544.872 85.3916ZM555.235 64.8647C555.291 63.4739 555.065 62.0862 554.571 60.783C554.078 59.4797 553.326 58.2873 552.361 57.2758C551.395 56.2642 550.235 55.4539 548.95 54.8924C547.664 54.3309 546.277 54.0295 544.872 54.006C543.464 53.9776 542.066 54.239 540.765 54.7734C539.464 55.3079 538.29 56.1038 537.316 57.1109C536.342 58.1181 535.59 59.3144 535.106 60.6243C534.623 61.9343 534.42 63.3292 534.509 64.721V64.8647C534.454 66.2555 534.679 67.6433 535.173 68.9465C535.667 70.2497 536.418 71.4421 537.383 72.4537C538.349 73.4652 539.509 74.2755 540.795 74.837C542.081 75.3985 543.467 75.6999 544.872 75.7234C546.28 75.7518 547.678 75.4905 548.979 74.9561C550.28 74.4216 551.454 73.6256 552.428 72.6185C553.402 71.6114 554.155 70.415 554.638 69.1051C555.121 67.7952 555.324 66.4002 555.235 65.0084V64.8647Z" fill="#21446D"></path><path d="M597.867 56.1205C590.385 56.1205 585.784 60.5954 585.784 69.9967V84.5092H574.53V45.1797H585.784V53.103C588.085 47.6839 591.795 44.1534 598.469 44.4408V56.1205H597.867Z" fill="#21446D"></path><path d="M618.905 85.1661C612.024 85.1661 607.36 82.4566 607.36 73.3632V54.7248H602.614V45.1798H607.36V35.1216H618.614V45.1798H627.962V54.7248H618.614V71.5363C618.614 74.1021 619.734 75.3337 622.242 75.3337C624.178 75.3347 626.082 74.8473 627.775 73.9174V82.8876C625.093 84.4574 622.019 85.2471 618.905 85.1661Z" fill="#21446D"></path><path d="M659.529 84.5093V80.2602C658.025 81.9179 656.168 83.2249 654.093 84.0873C652.018 84.9498 649.776 85.3462 647.528 85.2482C640.046 85.2482 633.89 80.9992 633.89 73.2195V73.0758C633.89 64.4751 640.481 60.5134 649.891 60.5134C653.196 60.4793 656.48 61.0285 659.591 62.135V61.4782C659.591 56.8596 656.71 54.2732 651.072 54.2732C647.319 54.2572 643.597 54.954 640.108 56.3259L637.29 47.8073C642.123 45.6179 647.396 44.544 652.71 44.6667C665 44.6667 670.41 50.9684 670.41 61.6219V84.4272L659.529 84.5093ZM659.757 68.6626C657.491 67.6778 655.039 67.1811 652.565 67.2052C647.735 67.2052 644.772 69.1141 644.772 72.6242V72.7679C644.772 75.7854 647.3 77.5507 650.99 77.5507C656.254 77.5507 659.819 74.6769 659.819 70.6537L659.757 68.6626Z" fill="#21446D"></path><path d="M703.404 84.5093V80.2602C701.898 81.9156 700.042 83.2211 697.967 84.0833C695.893 84.9456 693.651 85.3434 691.404 85.2482C683.901 85.2482 677.766 80.9992 677.766 73.2195V73.0758C677.766 64.4751 684.357 60.5134 693.766 60.5134C697.071 60.4815 700.355 61.0306 703.466 62.135V61.4782C703.466 56.8596 700.585 54.2732 694.948 54.2732C691.194 54.2572 687.472 54.954 683.984 56.3259L681.165 47.8073C685.999 45.6179 691.271 44.544 696.585 44.6667C708.876 44.6667 714.285 50.9684 714.285 61.6219V84.4272L703.404 84.5093ZM703.611 68.6626C701.353 67.6759 698.908 67.179 696.44 67.2052C691.611 67.2052 688.647 69.1141 688.647 72.6242V72.7679C688.647 75.7854 691.176 77.5507 694.865 77.5507C700.129 77.5507 703.673 74.6769 703.673 70.6537L703.611 68.6626Z" fill="#21446D"></path><path d="M724.526 84.5089V30.9543H735.781V84.5089H724.526Z" fill="#21446D"></path><path d="M0.788986 75.9697C-1.94687 50.0443 -0.330247 109.511 51.7132 104.092C103.342 98.7135 92.8754 40.1708 95.6113 66.0963C96.9333 78.5496 93.2061 91.0129 85.2496 100.745C77.293 110.476 65.759 116.679 53.1848 117.988C46.9587 118.636 40.6646 118.064 34.6619 116.303C28.6592 114.542 23.0654 111.628 18.2 107.726C8.37393 99.8461 2.111 88.423 0.788986 75.9697Z" fill="#21446D"></path><path d="M47.0908 0.45185C73.3716 -0.923449 13.3278 -2.42189 16.0015 49.3468C18.7166 100.664 78.3044 93.3769 52.0029 94.7522C45.7509 95.0757 39.4958 94.1765 33.5948 92.1058C27.6937 90.0351 22.2622 86.8336 17.6104 82.6841C12.9587 78.5345 9.1777 73.5181 6.48342 67.9214C3.78914 62.3246 2.23432 56.2571 1.9077 50.0653C1.58108 43.8734 2.48907 37.6785 4.57984 31.8342C6.67062 25.9899 9.90323 20.6106 14.0931 16.0036C18.283 11.3966 23.348 7.65194 28.9991 4.98357C34.6502 2.3152 40.7766 0.775325 47.0286 0.45185" fill="#21446D"></path><path d="M70.9665 119.795C44.6235 120.246 104.584 123.9 103.672 72.0082C102.76 20.6911 42.9654 25.8228 69.2876 25.3712C81.9306 25.1507 94.1441 29.9134 103.241 38.6114C112.339 47.3094 117.575 59.2303 117.797 71.7517C118.02 84.273 113.211 96.3691 104.429 105.379C95.6461 114.389 83.6094 119.574 70.9665 119.795Z" fill="#21446D"></path><path d="M73.04 2.95605C85.683 2.95605 97.808 7.93013 106.748 16.7841C115.688 25.638 120.71 37.6465 120.71 50.1678C120.71 76.2369 125.374 16.9348 73.04 16.9348" fill="#21446D"></path><path d="M73.0382 16.9553C21.2228 16.9553 25.368 76.2575 25.368 50.1883C25.368 37.667 30.3904 25.6585 39.3303 16.8046C48.2702 7.95064 60.3953 2.97656 73.0382 2.97656" fill="#21446D"></path><path d="M72.0865 61.1288C72.0906 63.3504 71.4292 65.5233 70.186 67.3724C68.9427 69.2216 67.1735 70.664 65.1023 71.5169C63.031 72.3699 60.7508 72.5952 58.5503 72.1643C56.3497 71.7334 54.3277 70.6656 52.7401 69.0961C51.1524 67.5266 50.0706 65.526 49.6315 63.3474C49.1923 61.1688 49.4157 58.9101 50.2731 56.8572C51.1306 54.8043 52.5837 53.0496 54.4485 51.8149C56.3134 50.5802 58.5061 49.9211 60.7493 49.9211C63.7525 49.9211 66.6331 51.1013 68.7586 53.2026C70.8842 55.3038 72.081 58.1544 72.0865 61.1288Z" fill="#21446D"></path><path d="M754.204 96.4969V31.4883H760.422V96.4969H754.204Z" fill="#21446D"></path><path d="M779.077 38.0776V31.4884H830.208V36.3944L787.678 89.7642H830.208V96.497H777.75V91.5706L820.156 38.2007L779.077 38.0776Z" fill="#21446D"></path><path d="M872.343 97.5234C852.405 97.5234 839.016 82.0257 839.016 64.0441C839.016 46.0626 852.571 30.3801 872.53 30.3801C892.489 30.3801 905.858 45.8574 905.858 63.8594C905.858 81.8615 892.365 97.5234 872.343 97.5234ZM872.343 37.1334C857.358 37.1334 846.684 49.0185 846.684 63.8183C846.684 78.6182 857.545 90.7085 872.53 90.7085C887.515 90.7085 898.189 78.844 898.189 64.0236C898.189 49.2032 887.411 37.1334 872.343 37.1334Z" fill="#21446D"></path><path d="M966.732 96.4969L947.726 71.2693H929.073V96.4969H921.674V31.4883H949.861C964.37 31.4883 973.551 39.1859 973.551 50.8656C973.551 61.7243 966.048 68.0261 955.747 69.8735L975.831 96.4969H966.732ZM949.219 38.3443H929.011V64.6802H949.136C958.981 64.6802 965.986 59.6717 965.986 51.2352C965.986 43.1271 959.81 38.2622 949.219 38.2622V38.3443Z" fill="#21446D"></path><path d="M1019.75 97.5233C999.146 97.5233 986.42 82.6824 986.42 64.044C986.42 46.1446 999.622 30.38 1019.29 30.38C1028.26 29.9948 1037.03 33.0876 1043.73 39.0012L1038.94 44.5641C1033.55 39.5705 1026.38 36.8982 1019 37.1333C1004.49 37.1333 994.13 49.2852 994.13 63.8182C994.13 79.3981 1004.16 90.8931 1020.08 90.8931C1026.93 90.868 1033.58 88.586 1038.98 84.4066V68.2725H1019.04V61.6834H1046.11V87.5473C1038.85 93.9525 1029.47 97.5014 1019.75 97.5233Z" fill="#21446D"></path><path d="M1080 41.2177C1080.02 42.7928 1079.71 44.3547 1079.1 45.8111C1078.5 47.2674 1077.6 48.5887 1076.47 49.6967C1075.34 50.8048 1074 51.6771 1072.52 52.2622C1071.05 52.8472 1069.47 53.133 1067.88 53.1027C1066.27 53.1691 1064.66 52.9128 1063.16 52.349C1061.65 51.7853 1060.28 50.9258 1059.11 49.8223C1057.95 48.7188 1057.03 47.3941 1056.4 45.9277C1055.77 44.4613 1055.44 42.8837 1055.44 41.2895C1055.44 39.6954 1055.77 38.1177 1056.4 36.6513C1057.03 35.185 1057.95 33.8602 1059.11 32.7567C1060.28 31.6532 1061.65 30.7937 1063.16 30.23C1064.66 29.6663 1066.27 29.4099 1067.88 29.4763C1069.46 29.4408 1071.03 29.7182 1072.5 30.2923C1073.97 30.8664 1075.3 31.7257 1076.43 32.8195C1077.56 33.9134 1078.46 35.2198 1079.07 36.662C1079.69 38.1042 1080 39.6531 1080 41.2177ZM1058.69 41.2177C1058.66 42.441 1058.87 43.6596 1059.31 44.8003C1059.76 45.9411 1060.44 46.9805 1061.3 47.8565C1062.16 48.7324 1063.2 49.4268 1064.34 49.8979C1065.48 50.3691 1066.7 50.6074 1067.94 50.5985C1070.45 50.5985 1072.86 49.6101 1074.64 47.8509C1076.41 46.0917 1077.41 43.7056 1077.41 41.2177C1077.41 38.7298 1076.41 36.3437 1074.64 34.5845C1072.86 32.8253 1070.45 31.8369 1067.94 31.8369C1066.7 31.8309 1065.48 32.0711 1064.34 32.5433C1063.2 33.0154 1062.17 33.7098 1061.31 34.5852C1060.44 35.4605 1059.77 36.4989 1059.32 37.6383C1058.87 38.7778 1058.66 39.9951 1058.69 41.2177ZM1065.99 47.3758H1063.23V35.6344C1064.74 35.3624 1066.26 35.2387 1067.79 35.2649C1069.23 35.1509 1070.67 35.4502 1071.94 36.127C1072.31 36.447 1072.61 36.8447 1072.81 37.2918C1073.01 37.7389 1073.11 38.2243 1073.1 38.7134C1073.05 39.3709 1072.78 39.9928 1072.33 40.4826C1071.88 40.9725 1071.29 41.3031 1070.63 41.423V41.5666C1071.22 41.8052 1071.74 42.1987 1072.12 42.7049C1072.51 43.2111 1072.74 43.811 1072.81 44.4404C1072.93 45.4578 1073.22 46.4491 1073.66 47.3758H1070.69C1070.25 46.4646 1069.94 45.4977 1069.76 44.502C1069.55 43.2088 1068.83 42.6545 1067.32 42.6545H1066.01L1065.99 47.3758ZM1065.99 40.7045H1067.3C1068.81 40.7045 1070.05 40.2118 1070.05 39.0008C1070.05 37.7897 1069.24 37.2149 1067.52 37.2149C1067.01 37.2058 1066.5 37.247 1065.99 37.3381V40.7045Z" fill="#21446D"></path><path d="M1080 69.5448C1080.02 71.1199 1079.71 72.6818 1079.1 74.1382C1078.5 75.5946 1077.6 76.9159 1076.47 78.0239C1075.34 79.132 1074 80.0043 1072.52 80.5893C1071.05 81.1743 1069.47 81.4602 1067.88 81.4299C1066.27 81.4963 1064.66 81.2399 1063.16 80.6762C1061.65 80.1125 1060.28 79.253 1059.11 78.1495C1057.95 77.046 1057.03 75.7213 1056.4 74.2549C1055.77 72.7885 1055.44 71.2108 1055.44 69.6167C1055.44 68.0225 1055.77 66.4448 1056.4 64.9785C1057.03 63.5121 1057.95 62.1874 1059.11 61.0839C1060.28 59.9804 1061.65 59.1209 1063.16 58.5572C1064.66 57.9935 1066.27 57.7371 1067.88 57.8035C1069.46 57.7679 1071.03 58.0453 1072.5 58.6195C1073.97 59.1936 1075.3 60.0528 1076.43 61.1467C1077.56 62.2405 1078.46 63.5469 1079.07 64.9891C1079.69 66.4313 1080 67.9802 1080 69.5448ZM1058.69 69.5448C1058.66 70.7682 1058.87 71.9868 1059.31 73.1275C1059.76 74.2683 1060.44 75.3077 1061.3 76.1837C1062.16 77.0596 1063.2 77.7539 1064.34 78.2251C1065.48 78.6962 1066.7 78.9345 1067.94 78.9256C1070.45 78.9256 1072.86 77.9373 1074.64 76.178C1076.41 74.4188 1077.41 72.0328 1077.41 69.5448C1077.41 67.0569 1076.41 64.6709 1074.64 62.9116C1072.86 61.1524 1070.45 60.1641 1067.94 60.1641C1066.7 60.158 1065.48 60.3983 1064.34 60.8704C1063.2 61.3426 1062.17 62.037 1061.31 62.9123C1060.44 63.7877 1059.77 64.826 1059.32 65.9655C1058.87 67.105 1058.66 68.3223 1058.69 69.5448Z" fill="#21446D"></path><path d="M1061.47 65.7066C1062.29 65.575 1063.11 65.5132 1063.94 65.5218C1064.78 65.4479 1065.63 65.6116 1066.38 65.994C1066.69 66.1549 1066.94 66.3949 1067.11 66.6879C1067.29 66.981 1067.38 67.316 1067.38 67.6566C1067.37 68.0468 1067.25 68.4257 1067.01 68.7391C1066.78 69.0525 1066.45 69.2843 1066.07 69.4014C1066.54 69.5097 1066.95 69.773 1067.24 70.1469C1067.53 70.5207 1067.68 70.9824 1067.67 71.4541C1067.67 71.7896 1067.59 72.121 1067.45 72.4233C1067.3 72.7255 1067.08 72.9907 1066.82 73.1988C1065.84 73.8264 1064.66 74.1016 1063.5 73.9789C1062.81 73.9973 1062.12 73.9561 1061.43 73.8557L1061.47 65.7066ZM1063.54 68.8266H1063.96C1064.77 68.8266 1065.2 68.4572 1065.2 67.9029C1065.2 67.3487 1064.87 67.0613 1064.19 67.0613C1063.97 67.0324 1063.76 67.0324 1063.54 67.0613V68.8266ZM1063.54 72.3572C1063.73 72.3823 1063.92 72.3823 1064.1 72.3572C1064.77 72.3572 1065.37 72.0494 1065.37 71.3104C1065.37 70.5714 1064.77 70.3046 1064.02 70.3046H1063.54V72.3572Z" fill="#21446D"></path><path d="M1070.45 73.9173L1068.02 65.7065H1070.38L1071.17 69.0319C1071.38 69.9351 1071.59 70.8588 1071.75 71.8851C1071.92 70.8793 1072.1 69.8324 1072.31 69.0319L1073.1 65.7065H1075.46L1072.97 73.9173H1070.45Z" fill="#21446D"></path></g><defs><clipPath id="clip0_1151_2733"><rect width="1080" height="120" fill="white"></rect></clipPath></defs></svg> 